<svg xmlns="http://www.w3.org/2000/svg" version="1.2" width="500" height="500" baseProfile="tiny-ps"><title>Company Name</title><path d="M0 0 C2.53007828 -0.00434514 5.05836658 -0.04069015 7.58813477 -0.07861328 C45.58814728 -0.34024042 83.75237183 17.40924946 110.77758789 43.64794922 C114.22467894 47.09999299 117.48653736 50.52983827 120.49633789 54.37060547 C120.89530273 54.87897949 121.29426758 55.38735352 121.70532227 55.91113281 C134.68993962 72.61579565 144.70720694 90.94917297 150.49633789 111.37060547 C150.7291748 112.18561523 150.96201172 113.000625 151.2019043 113.84033203 C157.84187413 138.10435738 158.2135867 165.08730616 151.49633789 189.37060547 C151.1405609 190.79598574 150.78638475 192.22176658 150.43383789 193.64794922 C139.94083283 234.14162164 112.60188159 265.7027797 77.49633789 287.18310547 C70.75694371 290.9786434 63.64457676 293.85884551 56.43432617 296.62451172 C54.81065751 297.24959756 53.19706723 297.90077766 51.58618164 298.55810547 C25.20918687 308.50289289 -10.46669288 309.38291435 -37.50366211 301.37060547 C-38.64109863 301.04914551 -38.64109863 301.04914551 -39.80151367 300.72119141 C-50.9969358 297.504439 -61.32406294 293.00546655 -71.50366211 287.37060547 C-72.48061035 286.83064941 -72.48061035 286.83064941 -73.47729492 286.27978516 C-82.18225281 281.40345659 -90.02099424 276.01359896 -97.50366211 269.37060547 C-98.28870117 268.68393799 -98.28870117 268.68393799 -99.08959961 267.98339844 C-106.66542439 261.33454518 -113.42568186 254.45455944 -119.50366211 246.37060547 C-120.38924805 245.20851563 -120.38924805 245.20851563 -121.29272461 244.02294922 C-139.81981058 218.68567868 -150.69234106 187.44691685 -150.68896484 156.08520508 C-150.69113293 153.83834346 -150.70927493 151.59198871 -150.72827148 149.34521484 C-150.78023071 136.54613043 -149.45275221 124.31678807 -145.81616211 111.99560547 C-145.55416016 111.10059326 -145.2921582 110.20558105 -145.0222168 109.28344727 C-135.77540052 78.68543743 -117.22880241 50.55545587 -91.50366211 31.37060547 C-90.59100586 30.66935547 -89.67834961 29.96810547 -88.73803711 29.24560547 C-81.79842131 24.15897609 -74.4835105 20.0598552 -66.87866211 16.05810547 C-65.92507812 15.55432373 -64.97149414 15.05054199 -63.98901367 14.53149414 C-55.00083074 9.90049145 -45.87610804 6.43314166 -36.00366211 4.24560547 C-35.33463867 4.08962891 -34.66561523 3.93365234 -33.97631836 3.77294922 C-31.82355299 3.28053975 -29.66453674 2.82599543 -27.50366211 2.37060547 C-26.74126221 2.18965332 -25.9788623 2.00870117 -25.19335938 1.82226562 C-16.83720497 0.02054292 -8.50968394 -0.00162787 0 0 Z " fill="#B87333" transform="translate(242.503662109375,97.62939453125)"/><path d="M0 0 C8.43259227 -0.06981514 16.86506178 -0.12296998 25.29787254 -0.15543652 C29.21447405 -0.17102661 33.13087637 -0.19214147 37.04736328 -0.22631836 C40.8340002 -0.25915161 44.62044672 -0.27690294 48.40721512 -0.28463173 C49.84476336 -0.2901326 51.28230236 -0.30087329 52.71976852 -0.31719017 C66.12144649 -0.46312743 77.85544455 1.4783551 88.04296875 10.88671875 C97.6453288 21.30804341 98.5072178 31.39855431 98 45 C96.83642569 56.48614072 90.60026249 66.49736861 82 74 C76.22333484 77.66053461 70.801414 80.10322097 64 81 C68.99420084 86.5869469 74.03107056 92.12908648 79.125 97.625 C82.25533024 101.00317635 85.36985261 104.38417222 88.375 107.875 C92.36841209 112.49482967 96.57218844 116.91848755 100.74780273 121.37280273 C104.01543139 124.86217106 107.25568037 128.36927343 110.4375 131.9375 C114.43325413 136.39718063 118.48569074 140.80198583 122.5625 145.1875 C123.17601318 145.85322021 123.78952637 146.51894043 124.42163086 147.20483398 C128.16041731 151.21064103 132.05095438 154.90126123 136.2121582 158.46606445 C138.29823744 160.25588227 140.29979126 162.12846322 142.3125 164 C148.77577436 169.75879982 156.13719185 174.38735842 164 178 C166.40256768 165.3865197 166.09794035 152.96180716 159 142 C152.29954757 133.02868294 143.32946569 126.33764419 134.46484375 119.640625 C130.03949307 116.28951199 125.71442992 112.81434961 121.39575195 109.32739258 C118.63741523 107.10137276 115.87433741 104.90567017 113.0390625 102.77734375 C107.37915355 98.50266777 103.45649881 94.21235597 100 88 C99.65453125 87.38672852 99.3090625 86.77345703 98.953125 86.14160156 C95.75733687 78.96090139 96.90829585 67.52704418 99.16796875 60.2265625 C100.59991116 57.3037803 102.14411206 54.67034236 104 52 C104.38285156 51.3915625 104.76570313 50.783125 105.16015625 50.15625 C109.5757659 43.9522393 117.77779356 39.8439676 125 38 C128.31697214 37.7190814 131.61035588 37.71632871 134.9375 37.75 C136.31844849 37.75580078 136.31844849 37.75580078 137.72729492 37.76171875 C145.64158685 37.86067317 153.19068816 38.737889 161 40 C161 48.58 161 57.16 161 66 C160.34 66 159.68 66 159 66 C158.90203125 65.41992188 158.8040625 64.83984375 158.703125 64.2421875 C157.70423228 59.02383417 156.66142995 55.02757295 153 51 C145.10760463 46.21790823 138.23046366 44.11150617 129 45 C121.64178912 47.07655031 117.41935223 50.99215669 112.6875 56.875 C109.31741902 63.13372181 109.98508963 71.75216323 111.58984375 78.46875 C115.5456708 87.65647734 125.82757257 93.50437246 133.53515625 99.359375 C139.41673563 103.82944214 145.21321135 108.40823457 151 113 C152.00546875 113.79664063 153.0109375 114.59328125 154.046875 115.4140625 C166.61939068 125.52069804 177.81907558 136.50490692 181 153 C181.91149949 162.83300474 181.12921788 171.61234635 178 181 C181.3 181.33 184.6 181.66 188 182 C187.67 182.99 187.34 183.98 187 185 C185.89205078 185.00773437 185.89205078 185.00773437 184.76171875 185.015625 C178.6680003 185.48020328 174.91281679 186.45969975 170.72924805 191.13012695 C169.82155179 192.21586062 168.91547975 193.30295412 168.01098633 194.39135742 C160.21571185 203.715062 149.81889886 207.60377775 138 209 C121.80087814 210.13089307 107.69328017 207.73535563 94.78125 197.1875 C85.90585232 188.97444543 81.03675886 177.21786654 80.5625 165.1875 C80.85971586 155.12092821 84.19826712 146.38472177 89.828125 138.12109375 C91.32239241 135.82035123 91.32239241 135.82035123 91 132 C89.49669701 130.04803245 89.49669701 130.04803245 87.4375 128.25 C84.72341929 125.66877638 82.12730532 123.09249163 79.6875 120.25 C76.69320621 116.76921912 73.61158612 113.37574271 70.5 110 C67.46093308 106.69988699 64.43843486 103.39050176 61.5 100 C50.60176103 86.38891309 50.60176103 86.38891309 37 76 C37 75.01 37 74.02 37 73 C38.08796875 72.96261719 39.1759375 72.92523438 40.296875 72.88671875 C54.62403569 72.29309253 65.57576004 70.96887563 76.3125 60.8125 C82.11889646 51.13517257 82.25482585 38.93677349 80.53125 28.03515625 C78.68963875 20.92083661 74.90427652 14.79037475 68.8125 10.5625 C64.31906395 8.06614664 60.5082528 7.80236793 55.48828125 7.68359375 C54.76005661 7.66281265 54.03183197 7.64203156 53.28153992 7.62062073 C50.95862125 7.55531254 48.63559094 7.49632763 46.3125 7.4375 C44.73631665 7.39429695 43.16014452 7.35068208 41.58398438 7.30664062 C37.72277025 7.1996504 33.86144397 7.09833039 30 7 C30.08392575 23.71597043 30.17906863 40.43183365 30.28752708 57.14766121 C30.33762653 64.9092932 30.38406973 72.67091477 30.421875 80.43261719 C30.4548394 87.19854123 30.49469514 93.96438378 30.54279006 100.73021781 C30.5680109 104.3119234 30.58980513 107.89357523 30.60334396 111.47534561 C30.6185955 115.47603292 30.64923364 119.47646173 30.68115234 123.47705078 C30.68331253 124.6617244 30.68547272 125.84639801 30.68769836 127.06697083 C30.71065052 134.74011146 30.71065052 134.74011146 33 142 C35.67477516 143.90892074 38.55752706 144.46772616 41.75 145.125 C42.94882813 145.37636719 42.94882813 145.37636719 44.171875 145.6328125 C44.77515625 145.75398437 45.3784375 145.87515625 46 146 C46 146.66 46 147.32 46 148 C30.82 148 15.64 148 0 148 C0 147.34 0 146.68 0 146 C1.216875 145.7525 2.43375 145.505 3.6875 145.25 C8.24833584 144.10373683 11.57953536 142.30493636 14.1160984 138.18894768 C15.16176419 135.59939731 15.25706602 133.64267163 15.26742554 130.85183716 C15.28022049 129.29156296 15.28022049 129.29156296 15.29327393 127.69976807 C15.29236755 126.56408386 15.29146118 125.42839966 15.29052734 124.25830078 C15.29724457 123.05791168 15.30396179 121.85752258 15.31088257 120.62075806 C15.32662564 117.33140131 15.33323761 114.04219611 15.33451414 110.75280619 C15.33593676 108.69637758 15.34020846 106.63997536 15.34550858 104.58355331 C15.36400645 97.40545728 15.37217951 90.22743548 15.37060547 83.04931641 C15.36940419 76.3645553 15.39050419 69.68011714 15.4220928 62.99543774 C15.44826858 57.25092177 15.45897222 51.5065112 15.45769465 45.76193607 C15.45718538 42.33331309 15.46284847 38.90497715 15.48405075 35.47641373 C15.50362695 31.65083198 15.49790453 27.82608319 15.48583984 24.00048828 C15.49707886 22.86885254 15.50831787 21.7372168 15.51989746 20.57128906 C15.46009777 13.1162847 14.50963064 9.50963064 9.1875 4.1875 C6.19975157 2.56557942 3.35470499 2.32256779 0 2 C0 1.34 0 0.68 0 0 Z " fill="#ffffff" transform="translate(152,146)"/><path d="M0 0 C3.89252812 1.55701125 6.06142977 4.01434106 8.8125 7.125 C9.477052 7.86858765 9.477052 7.86858765 10.1550293 8.62719727 C12.05004368 10.75405766 13.91712874 12.90140539 15.75 15.08203125 C28.69275467 30.45155242 45.03715302 43.64446975 65 48 C61.52132209 55.77685206 53.68378592 60.0191186 46 63 C35.19957174 65.41367421 21.6547235 65.89042697 12 60 C3.84226336 54.76929179 -3.86603707 47.42914004 -6.5625 37.83984375 C-8.25754461 26.83718814 -7.97434844 16.10915973 -3 6 C-2.69191406 5.34128906 -2.38382813 4.68257813 -2.06640625 4.00390625 C-1.41354451 2.65132666 -0.71417846 1.32123016 0 0 Z " fill="#B87333" transform="translate(246,283)"/></svg>
